<?xml version="1.0" encoding="utf-8"?>
<!-- Generator: Adobe Illustrator 18.1.1, SVG Export Plug-In . SVG Version: 6.00 Build 0)  -->
<svg version="1.1" id="Layer_1" xmlns="http://www.w3.org/2000/svg" xmlns:xlink="http://www.w3.org/1999/xlink" x="0px" y="0px"
	 viewBox="0 0 443.1 168.4" style="enable-background:new 0 0 443.1 168.4;" xml:space="preserve">
<style type="text/css">
	.st0{fill:#001828;}
	.st1{fill:#1BA7E4;}
	.st2{fill:#DDEEE2;}
	.st4{fill:#004261;}
	.st5{fill:#002F47;}
	.st11{clip-path:url(#SVGID_2_);}
	.st12{clip-path:url(#SVGID_4_);fill:#DDEEE2;}
</style>
<defs>
<pattern id="diagonalHatch" width="3px" height="100px" patternTransform="rotate(90 0 0)" patternUnits="userSpaceOnUse">
  <line x1="0" y1="0" x2="0" y2="10" style="stroke:#263E4A; stroke-width:1px" />
</pattern>
</defs>
<g>
	<polygon class="st0" points="98.8,24.7 113.4,10.9 117.6,15.1 206.9,16.6 213,11.7 227.1,25.5 219.1,33.2 426.3,33.2 438.6,115.4 
		217.2,115.4 226.4,125.1 211.8,139.5 206.6,135 119,132.6 112.1,138.6 97.6,124.2 107.1,115.4 4.9,115.4 17.9,33.2 107.1,33.2 	"/>
	<polygon class="st1" points="97.5,119.4 0,119.4 13.9,30.3 98.8,30.3 94.3,36.5 21.4,36.5 9.8,111.4 92.4,111.4 	"/>
	<polygon class="st1" points="412.4,43.7 420.8,103.9 406.6,103.9 400.8,60.9 394.7,103.9 381.3,103.9 364.5,61.4 368.4,103.9 
		355.3,103.9 350.3,43.7 370.6,43.7 385.6,80 389.8,43.7 	"/>
	<path class="st1" d="M331.9,103.9h-19.1l-3.9-0.2l-3.7-1.3l-3.2-2.2l-2.5-3l-1.6-3.6l-0.5-3.9l-1.7-32.2l0.1-3.7l1.2-3.5l2.1-3
		l2.9-2.2l3.4-1.3l3.7-0.2h18.3l3.6,0.4l3.3,1.4l2.9,2.2l2.2,2.9l1.4,3.3l0.4,3.6l2.8,32.2l0.1,3.5l-0.9,3.4l-1.8,3l-2.6,2.4
		l-3.2,1.5L331.9,103.9z M321.4,57.4h-4.6l-1.8,0.2l-1.6,0.7l-1.4,1.1l-1,1.4l-0.6,1.7l-0.1,1.8l1.2,18.1l0.4,1.9l0.8,1.7l1.2,1.5
		l1.5,1.1l1.8,0.7l1.9,0.2h4.7l1.8-0.2l1.6-0.7l1.4-1.1l1-1.5l0.6-1.7l0.1-1.8l-1.4-18.2l-0.4-1.8l-0.8-1.7l-1.2-1.4l-1.5-1.1
		l-1.7-0.7L321.4,57.4z"/>
	<polygon class="st1" points="275.4,103.9 260.4,103.9 256.4,103.7 252.6,102.4 249.2,100.2 246.6,97.2 244.9,93.5 244.2,89.6 
		243.7,57.4 244.2,53.7 245.8,50.2 248.2,47.3 251.4,45.1 255,43.9 258.8,43.7 273.2,43.7 277,43.9 280.6,45.1 283.7,47.3 
		286.1,50.2 287.7,53.7 288.2,57.4 288.6,64.9 274,64.9 273.9,62.9 273.6,61.4 273.1,60.1 272.2,59 271,58.1 269.7,57.6 268.2,57.4 
		264.6,57.4 263.2,57.6 261.9,58.2 260.8,59 260,60.2 259.4,61.5 259.3,62.9 259.9,84 260.1,85.4 260.7,86.8 261.6,87.9 262.8,88.8 
		264.1,89.4 265.6,89.6 269.3,89.6 270.7,89.4 272.1,88.8 273.2,87.9 274,86.8 274.5,85.4 274.7,84 274.5,80.5 289.3,80.5 
		289.8,89.6 289.6,93.4 288.3,97 286,100.1 282.9,102.4 279.3,103.7 	"/>
	<polygon class="st1" points="232.6,111.4 434.5,111.4 421.6,36.5 231.7,36.5 227.4,30.3 429.3,30.3 443.1,119.4 227.1,119.4 	"/>
	<polygon class="st4" points="43.2,43.3 75.9,73.2 36.7,104.8 33,100.3 30,95.2 27.7,89.8 26.3,84.2 25.6,78.4 25.8,72.5 26.8,66.8 
		28.7,61.2 31.3,56 34.7,51.2 38.7,46.9 	"/>
	<polygon class="st5" points="82.7,43.3 115.4,73.2 76.2,104.8 72.5,100.3 69.5,95.2 67.2,89.8 65.9,84.7 80,73.3 67.9,62.2 
		68.2,61.2 70.8,56 74.1,51.2 78.1,46.9 	"/>
	<polygon class="st1" points="93.2,46.3 97.6,37.5 102.4,30.3 97,24.8 113.2,8.5 118.9,14.2 125.1,10.1 133.9,5.7 143.2,2.6 
		152.8,0.6 162.6,0 172.4,0.6 182,2.6 191.3,5.7 200.1,10.1 207.4,14.9 212.8,9.4 229.1,25.7 223.4,31.3 227.6,37.5 231.9,46.3 
		235.1,55.6 237,65.3 237.6,75.1 237,84.9 235.1,94.5 231.9,103.8 227.6,112.6 222.7,119.8 228.2,125.3 212,141.6 206.3,135.9 
		200.1,140.1 191.3,144.4 182,147.6 172.4,149.5 162.6,150.1 152.8,149.5 143.2,147.6 133.9,144.4 125.1,140.1 117.8,135.2 
		112.3,140.7 96.1,124.4 101.7,118.8 97.6,112.6 93.2,103.8 90.9,97 105.4,85.1 106.4,90.1 108.9,97.3 112.2,104.1 115.4,108.9 
		99.9,124.4 112.3,136.9 127.7,121.5 133.5,125.4 140.3,128.8 147.5,131.2 155,132.7 162.6,133.2 170.2,132.7 177.6,131.2 
		184.8,128.8 191.7,125.4 196.4,122.2 212,137.8 224.4,125.3 209.1,110 212.9,104.1 216.3,97.3 218.8,90.1 220.2,82.6 220.7,75.1 
		220.2,67.5 218.8,60 216.3,52.8 212.9,46 209.8,41.2 225.3,25.7 212.8,13.2 197.5,28.6 191.7,24.7 184.8,21.3 177.6,18.9 
		170.2,17.4 162.6,16.9 155,17.4 147.5,18.9 140.3,21.3 133.5,24.7 128.8,27.9 113.2,12.3 100.7,24.8 116.1,40.2 112.2,46 
		108.9,52.8 106.4,60 106.3,60.5 92.8,47.6 	"/>
	<polygon class="st1" points="103.5,24.8 113.2,15.1 162.6,65.8 212.8,16 222.5,25.7 171.9,75.1 221.6,125.3 212,135 162.6,84.3 
		112.3,134.1 102.6,124.4 153.3,75.1 	"/>
<g>
	<g>
		<defs>
			<rect id="SVGID_1_" x="195.6" y="65.6" width="301.2" height="156.6"/>
		</defs>
		<clipPath id="SVGID_2_">
			<use xlink:href="#SVGID_1_"  style="overflow:visible;"/>
		</clipPath>
		<g class="st11">
			<defs>
				<rect id="SVGID_3_" x="195.6" y="65.6" width="301.2" height="156.6"/>
			</defs>
			<clipPath id="SVGID_4_">
				<use xlink:href="#SVGID_3_"  style="overflow:visible;"/>
			</clipPath>
			<path class="st12" d="M286.5,156h-4.8v7.8h-10.6V156h-16v-9.4l16.3-18.6h10.4v19.5h4.8V156z M271.5,140.7c0,0-6.3,6.8-5.2,6.8h5.2
				V140.7z"/>
			<path class="st12" d="M321.2,145.8c0,9.7-4.9,18.4-15.5,18.4c-10.6,0-15.6-8.9-15.6-18.4c0-11.1,6.2-18.3,15.6-18.3
				C316.3,127.6,321.2,136.4,321.2,145.8 M300.7,146.3c0,6,1.7,8.8,5.1,8.8c3.3,0,5-3.1,5-9.3c0-6.2-1.6-9.1-5-9.1
				C300.9,136.7,300.7,142.7,300.7,146.3"/>
			<path class="st12" d="M363.1,145.8c0,9.7-4.9,18.4-15.5,18.4c-10.6,0-15.6-8.9-15.6-18.4c0-11.1,6.2-18.3,15.6-18.3
				C358.1,127.6,363.1,136.4,363.1,145.8 M342.5,146.3c0,6,1.7,8.8,5.1,8.8c3.3,0,5-3.1,5-9.3c0-6.2-1.6-9.1-5-9.1
				C342.7,136.7,342.5,142.7,342.5,146.3"/>
			<path class="st12" d="M398.2,145.8c0,9.7-4.9,18.4-15.5,18.4c-10.6,0-15.6-8.9-15.6-18.4c0-11.1,6.2-18.3,15.6-18.3
				C393.3,127.6,398.2,136.4,398.2,145.8 M377.7,146.3c0,6,1.7,8.8,5.1,8.8c3.3,0,5-3.1,5-9.3c0-6.2-1.6-9.1-5-9.1
				C377.8,136.7,377.7,142.7,377.7,146.3"/>
			<path class="st12" d="M433.4,145.8c0,9.7-4.9,18.4-15.5,18.4c-10.6,0-15.6-8.9-15.6-18.4c0-11.1,6.2-18.3,15.6-18.3
				C428.4,127.6,433.4,136.4,433.4,145.8 M412.8,146.3c0,6,1.7,8.8,5.1,8.8c3.3,0,5-3.1,5-9.3c0-6.2-1.6-9.1-5-9.1
				C413,136.7,412.8,142.7,412.8,146.3"/>
			<path class="st12" d="M330.2,161.8c0,3.8-3,6.5-7.6,6.6v-2.9c2-0.3,3-1.1,3.2-2.9h-3.2v-6.4h7.6V161.8z"/>
		</g>
	</g>
</g>
	<path class="st1" d="M0,119.4h97.5 M412.4,43.7l8.5,60.2 M0,119.4l13.9-89.1 M412.4,43.7h-22.5 M420.8,103.9h-14.2 M350.3,43.7
		l5,60.2 M368.4,103.9h-13.2 M368.4,103.9l-4-42.5 M364.5,61.4l16.9,42.5 M370.6,43.7h-20.3 M370.6,43.7l15,36.3 M385.6,80l4.2-36.3
		 M394.7,103.9h-13.3 M394.7,103.9l6.1-43 M400.8,60.9l5.9,43 M331.9,103.9h-19.1 M327.2,43.7h-18.3 M341,57.4l2.8,32.2 M295.5,57.4
		l1.7,32.2 M308.9,43.7l-3.7,0.2 M305.3,43.9l-3.4,1.3 M301.8,45.1l-2.9,2.2 M298.9,47.3l-2.1,3 M296.8,50.3l-1.2,3.5 M295.6,53.8
		l-0.1,3.7 M327.2,43.7l3.6,0.4 M330.8,44.1l3.3,1.4 M334.2,45.5l2.9,2.2 M337,47.7l2.2,2.9 M339.2,50.5l1.4,3.3 M340.6,53.8
		l0.4,3.6 M297.3,89.6l0.5,3.9 M297.8,93.5l1.6,3.6 M299.4,97.1l2.5,3 M301.9,100.1l3.2,2.2 M305.1,102.4l3.7,1.3 M308.9,103.7
		l3.9,0.2 M343.8,89.6l0.1,3.5 M343.9,93.1l-0.9,3.4 M343,96.5l-1.8,3 M341.1,99.4l-2.6,2.4 M338.5,101.8l-3.2,1.5 M335.4,103.3
		l-3.5,0.6 M321.4,57.4h-4.6 M316.8,57.4l-1.8,0.2 M315,57.7l-1.6,0.7 M313.4,58.4l-1.4,1.1 M312,59.5l-1,1.4 M311,60.9l-0.6,1.7
		 M310.4,62.6l-0.1,1.8 M310.3,64.3l1.2,18.1 M321.4,57.4l1.8,0.2 M323.2,57.6l1.7,0.7 M325,58.3l1.5,1.1 M326.5,59.4l1.2,1.4
		 M327.7,60.8l0.8,1.7 M328.5,62.5l0.4,1.8 M328.9,64.3l1.4,18.2 M323.7,89.6H319 M319,89.6l-1.9-0.2 M317.1,89.3l-1.8-0.7
		 M315.3,88.6l-1.5-1.1 M313.8,87.5l-1.2-1.5 M312.6,86.1l-0.8-1.7 M311.8,84.3l-0.4-1.9 M323.7,89.6l1.8-0.2 M325.5,89.3l1.6-0.7
		 M327.1,88.6l1.4-1.1 M328.5,87.5l1-1.5 M329.6,86l0.6-1.7 M330.2,84.3l0.1-1.8 M275.4,103.9h-15 M273.2,43.7h-14.4 M288.2,57.4
		l0.4,7.5 M268.2,57.4h-3.6 M269.3,89.6h-3.7 M264.6,57.4l-1.4,0.2 M263.2,57.6l-1.3,0.5 M261.9,58.2l-1.1,0.9 M260.8,59l-0.8,1.1
		 M260,60.2l-0.5,1.3 M259.4,61.5l-0.1,1.4 M259.3,62.9l0.6,21.1 M268.2,57.4l1.4,0.2 M269.7,57.6l1.3,0.5 M271,58.1l1.2,0.9
		 M272.2,59l0.9,1.1 M273.1,60.1l0.6,1.3 M273.6,61.4l0.2,1.4 M265.6,89.6l-1.5-0.2 M264.1,89.4l-1.4-0.6 M262.8,88.8l-1.2-0.9
		 M261.6,87.9l-0.9-1.2 M260.7,86.8l-0.6-1.3 M260.1,85.4l-0.2-1.5 M269.3,89.6l1.4-0.2 M270.7,89.4l1.3-0.6 M272.1,88.8l1.1-0.9
		 M273.2,87.9l0.8-1.2 M274,86.8l0.5-1.3 M274.5,85.4l0.1-1.4 M274.7,84l-0.1-3.5 M273.2,43.7l3.8,0.2 M277,43.9l3.6,1.2
		 M280.6,45.1l3.1,2.2 M283.7,47.3l2.4,2.9 M286.1,50.2l1.5,3.5 M287.7,53.7l0.5,3.8 M244.2,89.6l-0.5-32.2 M289.8,89.6l-0.2,3.8
		 M289.6,93.4l-1.3,3.6 M288.3,97l-2.3,3.1 M286,100.1l-3.1,2.3 M282.9,102.4l-3.6,1.3 M279.3,103.7l-3.8,0.2 M260.4,103.9l-4-0.2
		 M256.4,103.7l-3.8-1.3 M252.6,102.4l-3.3-2.2 M249.2,100.2l-2.6-3 M246.6,97.2l-1.7-3.6 M244.9,93.5l-0.7-4 M258.8,43.7l-3.8,0.2
		 M255,43.9l-3.6,1.2 M251.4,45.1l-3.1,2.2 M248.2,47.3l-2.4,2.9 M245.8,50.2l-1.6,3.5 M244.2,53.7l-0.6,3.8 M274,64.9l-0.1-2
		 M288.6,64.9H274 M289.3,80.5l0.4,9.1 M289.3,80.5h-14.8 M434.5,111.4H232.6 M9.8,111.4l11.7-74.9 M43.2,43.3l32.6,29.9 M75.9,73.2
		l-39.2,31.6 M43.2,43.3l-4.6,3.7 M38.7,46.9l-4,4.3 M34.7,51.2L31.3,56 M31.3,56l-2.6,5.2 M28.7,61.2l-1.8,5.6 M26.8,66.8l-1,5.8
		 M25.8,72.5l-0.2,5.8 M25.6,78.4l0.6,5.8 M26.3,84.2l1.5,5.7 M27.7,89.8l2.3,5.4 M30,95.2l3,5 M33,100.3l3.7,4.5 M82.7,43.3
		l32.6,29.9 M72.5,100.3l3.7,4.5 M69.5,95.2l3,5 M67.2,89.8l2.3,5.4 M68.2,61.2l-0.3,1 M70.8,56l-2.6,5.2 M74.1,51.2L70.8,56
		 M78.1,46.9l-4,4.3 M82.7,43.3l-4.6,3.7 M67.9,62.2L80,73.3 M80,73.3L65.9,84.7 M65.9,84.7l1.3,5.1 M93.2,46.3l4.3-8.8 M125.1,10.1
		l8.8-4.3 M133.9,5.7l9.3-3.2 M143.2,2.6l9.6-1.9 M152.8,0.6l9.8-0.6 M97,24.8l16.3-16.3 M113.2,8.5l5.7,5.7 M118.9,14.2l6.2-4.1
		 M97,24.8l5.5,5.5 M113.2,12.3l-12.5,12.5 M100.7,24.8l15.4,15.4 M113.2,12.3l15.5,15.5 M113.2,15.1l-9.7,9.7 M125.1,140.1
		l-7.3-4.8 M227.6,37.5l4.3,8.8 M231.9,46.3l3.2,9.3 M235.1,55.6l1.9,9.6 M237,65.3l0.6,9.8 M172.4,0.6l9.6,1.9 M191.3,5.7l8.8,4.3
		 M162.6,16.9l-7.6,0.5 M155,17.4l-7.5,1.5 M147.5,18.9l-7.2,2.4 M140.3,21.3l-6.8,3.4 M133.5,24.7l-4.8,3.2 M112.2,46l-3.4,6.8
		 M108.9,52.8l-2.4,7.2 M106.4,60l-0.1,0.5 M106.4,90.1l2.4,7.2 M108.9,97.3l3.4,6.8 M112.2,104.1l3.2,4.8 M133.5,125.4l6.8,3.4
		 M140.3,128.8l7.2,2.4 M147.5,131.2l7.5,1.5 M155,132.7l7.6,0.5 M162.6,133.2l7.6-0.5 M170.2,132.7l7.5-1.5 M177.6,131.2l7.2-2.4
		 M184.8,128.8l6.8-3.4 M191.7,125.4l4.8-3.2 M212.9,104.1l3.4-6.8"/>
	<path class="st1" d="M216.3,97.3l2.4-7.2 M218.8,90.1l1.5-7.5 M220.2,82.6l0.5-7.6 M212.9,46l-3.2-4.8 M177.6,18.9l-7.5-1.5
		 M116.1,40.2l-3.9,5.8 M113.2,15.1l49.4,50.7 M103.5,24.8l49.8,50.3 M218.8,60l-2.4-7.2 M170.2,17.4l-7.6-0.5 M184.8,21.3l-7.2-2.4
		 M191.7,24.7l-6.8-3.4 M220.2,67.5l-1.5-7.5 M222.5,25.7l-50.7,49.4 M222.5,25.7l-9.7-9.7 M212.8,16l-50.3,49.8 M212.8,13.2
		l-15.4,15.4 M225.3,25.7l-12.5-12.5 M225.3,25.7l-15.5,15.5 M216.3,52.8l-3.4-6.8 M220.7,75.1l-0.5-7.6 M212.8,9.4l-5.5,5.5
		 M212.8,9.4l16.3,16.3 M229.1,25.7l-5.7,5.7 M197.5,28.6l-5.8-3.9 M228.2,125.3L212,141.6 M212,135l-49.4-50.7 M212,137.8
		l12.5-12.5 M228.2,125.3l-5.5-5.5 M212,135l9.7-9.7 M212,141.6l-5.7-5.7 M212,137.8l-15.5-15.5 M221.6,125.3l-49.8-50.3 M237,84.9
		l-1.9,9.6 M231.9,103.8l-4.3,8.8 M200.1,140.1l-8.8,4.3 M191.3,144.4l-9.3,3.2 M182,147.6l-9.6,1.9 M172.4,149.5l-9.8,0.6
		 M206.3,135.9l-6.2,4.1 M209.1,110l3.9-5.8 M102.6,124.4l9.7,9.7 M102.6,124.4l50.7-49.4 M112.3,134.1l50.3-49.8 M152.8,149.5
		l-9.6-1.9 M133.9,144.4l-8.8-4.3 M112.3,140.7l5.5-5.5 M112.3,140.7l-16.3-16.3 M96.1,124.4l5.7-5.7 M97.6,112.6l-4.3-8.8
		 M93.2,103.8L90.9,97 M99.9,124.4l15.5-15.5 M99.9,124.4l12.5,12.5 M112.3,136.9l15.4-15.4 M101.7,118.8l-4.1-6.2 M127.7,121.5
		l5.8,3.9 M224.4,125.3L209.1,110 M227.1,119.4h215.9 M232.6,111.4l-5.5,8 M92.4,111.4H9.8 M97.5,119.4l-5.1-8 M76.2,104.8
		l39.2-31.6 M92.8,47.6l0.4-1.3 M106.3,60.5L92.8,47.6 M105.4,85.1l1,5 M105.4,85.1L90.9,97 M13.9,30.3h84.9 M443.1,119.4
		l-13.8-89.1 M227.4,30.3h201.8 M94.3,36.5l4.5-6.2 M21.4,36.5h72.8 M231.7,36.5l-4.3-6.2 M231.7,36.5h189.9 M434.5,111.4
		l-12.8-74.9 M270.9,126.9h11.6 M282.6,146.1h4.1 M286.7,146.1V157 M286.7,157h-4.1 M282.6,157v7.1 M254.2,157v-10.9 M254.2,146.1
		l16.8-19.2 M282.6,164.1h-13 M269.6,157h-15.4 M269.6,164.1V157 M282.6,126.9v19.2 M270,142.5l-3.1,3.6 M266.9,146.1h3.1
		 M270,146.1v-3.6 M306.1,126.3l-1.9,0.1 M304.2,126.4l-1.9,0.3 M302.2,126.7l-2.2,0.6 M300,127.3l-2.3,1 M297.7,128.3l-2.3,1.7
		 M295.4,130l-1.8,2 M293.6,132.1l-1.3,2.2 M292.2,134.3l-1.1,2.7 M291.1,137l-0.7,3 M290.4,140l-0.4,2.8 M290.1,142.8l-0.1,2.7
		 M306.1,137.2l-0.6,0.1 M305.5,137.2l-0.6,0.3 M304.8,137.5l-0.4,0.4 M304.4,137.9l-0.5,0.9 M303.9,138.8l-0.4,1.2 M303.5,139.9
		l-0.3,1.3 M303.2,141.2l-0.2,2 M303,143.2l-0.1,2.3 M309.1,143.2l0.1,2.3 M308.9,141.2l0.2,2 M308.6,139.9l0.3,1.3 M308.2,138.8
		l0.4,1.2 M307.7,137.9l0.5,0.9 M307.3,137.5l0.4,0.4 M306.7,137.2l0.6,0.3 M306.1,137.2l0.6,0.1 M306.1,126.3l1.9,0.1 M308,126.4
		l1.9,0.3 M309.9,126.7l2.2,0.6 M312.1,127.3l2.3,1 M314.4,128.3l2.3,1.7 M316.7,130l1.8,2 M318.5,132.1l1.3,2.2 M319.9,134.3
		l1.1,2.7 M321,137l0.7,3 M321.7,140l0.4,2.8 M322,142.8l0.1,2.7 M303,147.7l-0.1-2.3 M306.1,153.7l-0.6-0.1 M305.5,153.6l-0.6-0.3
		 M304.8,153.3l-0.4-0.4 M304.4,152.9l-0.5-0.9 M303.9,152.1l-0.4-1.2 M303.5,150.9l-0.3-1.3 M303.2,149.6l-0.2-2 M309.1,147.7
		l0.1-2.3 M308.9,149.6l0.2-2 M308.6,150.9l0.3-1.3 M308.2,152.1l0.4-1.2 M307.7,152.9l0.5-0.9 M307.3,153.3l0.4-0.4 M306.7,153.6
		l0.6-0.3 M306.1,153.7l0.6-0.1 M322,148.1l0.1-2.7 M321.7,150.9l0.4-2.8 M321,153.8l0.7-3 M319.9,156.6l1.1-2.7 M318.5,158.8
		l1.3-2.2 M316.7,160.8l1.8-2 M314.4,162.5l2.3-1.7 M312.1,163.5l2.3-1 M309.9,164.2l2.2-0.6 M308,164.5l1.9-0.3 M306.1,164.6
		l1.9-0.1 M306.1,164.6l-1.9-0.1 M304.2,164.5l-1.9-0.3 M302.2,164.2l-2.2-0.6 M300,163.5l-2.3-1 M297.7,162.5l-2.3-1.7
		 M295.4,160.8l-1.8-2 M293.6,158.8l-1.3-2.2 M292.2,156.6l-1.1-2.7 M291.1,153.8l-0.7-3 M290.4,150.9l-0.4-2.8 M290.1,148.1
		l-0.1-2.7 M322.1,155.2h8.8 M330.9,155.2v7 M324.6,168.4l1.6-0.2 M326.3,168.2l1.5-0.6 M327.8,167.6l1.3-1 M329.1,166.6l1-1.3
		 M330.1,165.3l0.6-1.5 M330.7,163.8l0.2-1.6 M322.1,155.2v7 M322.1,162.2h3.9 M326.1,162.2l-0.3,0.5 M325.8,162.6l-0.3,0.4
		 M325.5,163l-0.4,0.4 M325.1,163.4l-0.4,0.3 M324.6,163.7l-0.5,0.2 M324.2,163.9l-0.5,0.1 M323.7,164h-1.5 M322.1,164v4.4
		 M324.6,168.4h-2.5 M336.1,160.8l-1.8-2 M332.9,156.6l-1.1-2.7 M359.2,132.1l1.3,2.2 M340.7,163.5l-2.3-1 M355.1,128.3l2.3,1.7
		 M348.4,137.9l0.5,0.9 M357.4,130l1.8,2 M350.6,164.2l2.2-0.6 M349.8,147.7l0.1-2.3 M346.8,126.3l-1.9,0.1 M338.4,128.3l-2.3,1.7
		 M348.9,138.8l0.4,1.2 M331.8,137l-0.7,3 M350.6,126.7l2.2,0.6 M347.4,137.2l0.6,0.3 M349.6,141.2l0.2,2 M334.3,132.1l-1.3,2.2"/>
	<path class="st1" d="M344.9,126.4l-1.9,0.3 M362.7,142.8l0.1,2.7 M345.5,137.5l-0.4,0.4 M345.1,137.9l-0.5,0.9 M344.6,138.8
		l-0.4,1.2 M344,141.2l-0.2,2 M362.7,148.1l0.1-2.7 M344.2,139.9l-0.3,1.3 M342.9,164.2l-2.2-0.6 M348.7,164.5l1.9-0.3 M344.2,150.9
		l-0.3-1.3 M348.9,152.1l0.4-1.2 M331.8,153.8l-0.7-3 M343.8,143.2l-0.1,2.3 M343.8,147.7l-0.1-2.3 M346.8,137.2l0.6,0.1
		 M349.6,149.6l0.2-2 M344.6,152.1l-0.4-1.2 M345.1,152.9l-0.5-0.9 M362.4,150.9l0.4-2.8 M362.4,140l0.4,2.8 M346.8,153.7l-0.6-0.1
		 M346.2,137.2l-0.6,0.3 M346.8,164.6l1.9-0.1 M349.8,143.2l0.1,2.3 M355.1,162.5l2.3-1.7 M346.8,126.3l1.9,0.1 M357.4,160.8l1.8-2
		 M348,137.5l0.4,0.4 M344,149.6l-0.2-2 M345.5,153.3l-0.4-0.4 M330.8,142.8l-0.1,2.7 M359.2,158.8l1.3-2.2 M361.7,137l0.7,3
		 M338.4,162.5l-2.3-1.7 M346.8,164.6l-1.9-0.1 M348,153.3l0.4-0.4 M360.6,134.3l1.1,2.7 M352.8,163.5l2.3-1 M346.8,137.2l-0.6,0.1
		 M331.2,150.9l-0.4-2.8 M349.3,139.9l0.3,1.3 M342.9,126.7l-2.2,0.6 M336.1,130l-1.8,2 M330.8,148.1l-0.1-2.7 M347.4,153.6l0.6-0.3
		 M346.8,153.7l0.6-0.1 M344.9,164.5l-1.9-0.3 M348.4,152.9l0.5-0.9 M340.7,127.3l-2.3,1 M334.3,158.8l-1.3-2.2 M332.9,134.3
		l-1.1,2.7 M360.6,156.6l1.1-2.7 M361.7,153.8l0.7-3 M352.8,127.3l2.3,1 M349.3,150.9l0.3-1.3 M348.7,126.4l1.9,0.3 M331.2,140
		l-0.4,2.8 M346.2,153.6l-0.6-0.3 M382.2,164.6l1.9-0.1 M382.2,164.6l-1.9-0.1 M380.3,164.5l-1.9-0.3 M378.3,164.2l-2.2-0.6
		 M376.1,163.5l-2.3-1 M373.8,162.5l-2.3-1.7 M371.5,160.8l-1.8-2 M369.7,158.8l-1.3-2.2 M368.3,156.6l-1.1-2.7 M367.2,153.8l-0.7-3
		 M366.5,150.9l-0.4-2.8 M366.2,148.1l-0.1-2.7 M366.2,142.8l-0.1,2.7 M366.5,140l-0.4,2.8 M367.2,137l-0.7,3 M368.3,134.3l-1.1,2.7
		 M369.7,132.1l-1.3,2.2 M371.5,130l-1.8,2 M373.8,128.3l-2.3,1.7 M376.1,127.3l-2.3,1 M378.3,126.7l-2.2,0.6 M380.3,126.4l-1.9,0.3
		 M382.2,126.3l-1.9,0.1 M382.2,126.3l1.9,0.1 M384.1,126.4l1.9,0.3 M386,126.7l2.2,0.6 M388.2,127.3l2.3,1 M390.5,128.3l2.3,1.7
		 M392.8,130l1.8,2 M394.6,132.1l1.3,2.2 M396,134.3l1.1,2.7 M397.1,137l0.7,3 M397.8,140l0.4,2.8 M398.1,142.8l0.1,2.7
		 M398.1,148.1l0.1-2.7 M397.8,150.9l0.4-2.8 M397.1,153.8l0.7-3 M396,156.6l1.1-2.7 M394.6,158.8l1.3-2.2 M392.8,160.8l1.8-2
		 M390.5,162.5l2.3-1.7 M388.2,163.5l2.3-1 M386,164.2l2.2-0.6 M384.1,164.5l1.9-0.3 M382.2,153.7l-0.6-0.1 M382.2,153.7l0.6-0.1
		 M382.8,153.6l0.6-0.3 M383.4,153.3l0.4-0.4 M383.8,152.9l0.5-0.9 M384.3,152.1l0.4-1.2 M384.7,150.9l0.3-1.3 M385,149.6l0.2-2
		 M385.2,147.7l0.1-2.3 M385.2,143.2l0.1,2.3 M385,141.2l0.2,2 M384.7,139.9l0.3,1.3 M384.3,138.8l0.4,1.2 M383.8,137.9l0.5,0.9
		 M383.4,137.5l0.4,0.4 M382.8,137.2l0.6,0.3 M382.2,137.2l0.6,0.1 M382.2,137.2l-0.6,0.1 M381.6,137.2l-0.6,0.3 M380.9,137.5
		l-0.4,0.4 M380.5,137.9l-0.5,0.9 M380,138.8l-0.4,1.2 M379.6,139.9l-0.3,1.3 M379.3,141.2l-0.2,2 M379.1,143.2l-0.1,2.3
		 M379.1,147.7l-0.1-2.3 M379.3,149.6l-0.2-2 M379.6,150.9l-0.3-1.3 M380,152.1l-0.4-1.2 M380.5,152.9l-0.5-0.9 M380.9,153.3
		l-0.4-0.4 M381.6,153.6l-0.6-0.3 M416.9,153.6l-0.6-0.3 M417.5,164.6l1.9-0.1 M417.5,164.6l-1.9-0.1 M415.7,164.5l-1.9-0.3
		 M413.7,164.2l-2.2-0.6 M411.5,163.5l-2.3-1 M409.2,162.5l-2.3-1.7 M406.9,160.8l-1.8-2 M405.1,158.8l-1.3-2.2 M403.7,156.6
		l-1.1-2.7 M402.6,153.8l-0.7-3 M401.9,150.9l-0.4-2.8 M401.6,148.1l-0.1-2.7 M401.6,142.8l-0.1,2.7 M401.9,140l-0.4,2.8 M402.6,137
		l-0.7,3 M403.7,134.3l-1.1,2.7 M405.1,132.1l-1.3,2.2 M406.9,130l-1.8,2 M409.2,128.3l-2.3,1.7 M411.5,127.3l-2.3,1 M413.7,126.7
		l-2.2,0.6 M415.7,126.4l-1.9,0.3 M417.5,126.3l-1.9,0.1 M417.5,126.3l1.9,0.1 M419.4,126.4l1.9,0.3 M421.4,126.7l2.2,0.6
		 M423.6,127.3l2.3,1 M425.9,128.3l2.3,1.7 M428.2,130l1.8,2 M430,132.1l1.3,2.2 M431.4,134.3l1.1,2.7 M432.5,137l0.7,3 M433.2,140
		l0.4,2.8 M433.5,142.8l0.1,2.7 M433.5,148.1l0.1-2.7 M433.2,150.9l0.4-2.8 M432.5,153.8l0.7-3 M431.4,156.6l1.1-2.7 M430,158.8
		l1.3-2.2 M428.2,160.8l1.8-2 M425.9,162.5l2.3-1.7 M423.6,163.5l2.3-1 M421.4,164.2l2.2-0.6 M419.4,164.5l1.9-0.3 M417.5,153.7
		l-0.6-0.1 M417.5,153.7l0.6-0.1 M418.1,153.6l0.6-0.3 M418.8,153.3l0.4-0.4 M419.2,152.9l0.5-0.9 M419.7,152.1l0.4-1.2
		 M420.1,150.9l0.3-1.3 M420.4,149.6l0.2-2 M420.6,147.7l0.1-2.3 M420.6,143.2l0.1,2.3 M420.4,141.2l0.2,2 M420.1,139.9l0.3,1.3
		 M419.7,138.8l0.4,1.2 M419.2,137.9l0.5,0.9 M418.8,137.5l0.4,0.4 M418.1,137.2l0.6,0.3 M417.5,137.2l0.6,0.1 M417.5,137.2
		l-0.6,0.1 M416.9,137.2l-0.6,0.3 M416.3,137.5l-0.4,0.4"/>
	<path class="st1" d="M415.9,137.9l-0.5,0.9 M415.4,138.8l-0.4,1.2 M415,139.9l-0.3,1.3 M414.7,141.2l-0.2,2 M414.5,143.2l-0.1,2.3
		 M414.5,147.7l-0.1-2.3 M414.7,149.6l-0.2-2 M415,150.9l-0.3-1.3 M415.4,152.1l-0.4-1.2 M415.9,152.9l-0.5-0.9 M416.3,153.3
		l-0.4-0.4 M102.4,30.3l-4.8,7.3 M143.2,147.6l-9.3-3.2 M162.6,150.1l-9.8-0.6 M235.1,94.5l-3.2,9.3 M237.6,75.1l-0.6,9.8 M162.6,0
		l9.8,0.6 M182,2.6l9.3,3.2 M207.4,14.9l-7.3-4.8 M227.6,37.5l-4.1-6.2 M222.7,119.8l4.8-7.3"/>
</g>
</svg>
